<?xml version="1.0" encoding="UTF-8" standalone="no"?>
<!-- Created with Inkscape (http://www.inkscape.org/) -->

<svg
   xmlns:osb="http://www.openswatchbook.org/uri/2009/osb"
   xmlns:dc="http://purl.org/dc/elements/1.1/"
   xmlns:cc="http://creativecommons.org/ns#"
   xmlns:rdf="http://www.w3.org/1999/02/22-rdf-syntax-ns#"
   xmlns:svg="http://www.w3.org/2000/svg"
   xmlns="http://www.w3.org/2000/svg"
   xmlns:xlink="http://www.w3.org/1999/xlink"
   xmlns:sodipodi="http://sodipodi.sourceforge.net/DTD/sodipodi-0.dtd"
   xmlns:inkscape="http://www.inkscape.org/namespaces/inkscape"
   id="svg2"
   version="1.1"
   inkscape:version="0.48.4 r9939"
   width="311.81"
   height="205.51125"
   xml:space="preserve"
   sodipodi:docname="Front.svg"><metadata
     id="metadata8"><rdf:RDF><cc:Work
         rdf:about=""><dc:format>image/svg+xml</dc:format><dc:type
           rdf:resource="http://purl.org/dc/dcmitype/StillImage" /><dc:title></dc:title></cc:Work></rdf:RDF></metadata><defs
     id="defs6"><pattern
       inkscape:collect="always"
       xlink:href="#pattern5444"
       id="pattern5448"
       patternTransform="matrix(0,1.0820293,-10.967009,0,-185.6693,0)" /><pattern
       inkscape:collect="always"
       xlink:href="#Strips1_2"
       id="pattern5444"
       patternTransform="matrix(0,1.0820293,-10.967009,0,0,0)" /><pattern
       inkscape:stockid="Stripes 1:2"
       id="Strips1_2"
       patternTransform="translate(0,0) scale(10,10)"
       height="1"
       width="3"
       patternUnits="userSpaceOnUse"
       inkscape:collect="always"><rect
         id="rect4681"
         height="2"
         width="1"
         y="-0.5"
         x="0"
         style="fill:black;stroke:none" /></pattern><pattern
       inkscape:stockid="Stripes 1:1 white"
       id="Strips1_1white"
       patternTransform="translate(0,0) scale(10,10)"
       height="1"
       width="2"
       patternUnits="userSpaceOnUse"
       inkscape:collect="always"><rect
         id="rect4672"
         height="2"
         width="1"
         y="-0.5"
         x="0"
         style="fill:white;stroke:none" /></pattern><linearGradient
       id="linearGradient5384"
       osb:paint="solid"><stop
         style="stop-color:#ffffff;stop-opacity:1;"
         offset="0"
         id="stop5386" /></linearGradient><clipPath
       clipPathUnits="userSpaceOnUse"
       id="clipPath3427"><path
         sodipodi:type="arc"
         style="fill:#808080;fill-opacity:0.92941176;fill-rule:evenodd"
         id="path3429"
         sodipodi:cx="19.987007"
         sodipodi:cy="28.496389"
         sodipodi:rx="12.450494"
         sodipodi:ry="12.450494"
         d="m 32.437501,28.496389 a 12.450494,12.450494 0 1 1 -24.9009877,0 12.450494,12.450494 0 1 1 24.9009877,0 z"
         transform="matrix(2.1072592,-2.1072592,2.1072592,2.1072592,-61.138575,245.42368)" /></clipPath><clipPath
       clipPathUnits="userSpaceOnUse"
       id="clipPath3402"><rect
         style="fill:#808080;fill-opacity:0.92941176;fill-rule:evenodd"
         id="rect3404"
         width="50.455616"
         height="25.992298"
         x="29.930771"
         y="309.67505" /></clipPath><clipPath
       clipPathUnits="userSpaceOnUse"
       id="clipPath5085"><rect
         style="fill:#808080;fill-opacity:0.92941176;fill-rule:evenodd"
         id="rect5087"
         width="50.455616"
         height="25.992298"
         x="29.930771"
         y="309.67505" /></clipPath><clipPath
       clipPathUnits="userSpaceOnUse"
       id="clipPath5089"><rect
         style="fill:#808080;fill-opacity:0.92941176;fill-rule:evenodd"
         id="rect5091"
         width="50.455616"
         height="25.992298"
         x="29.930771"
         y="309.67505" /></clipPath><clipPath
       clipPathUnits="userSpaceOnUse"
       id="clipPath5093"><rect
         style="fill:#808080;fill-opacity:0.92941176;fill-rule:evenodd"
         id="rect5095"
         width="50.455616"
         height="25.992298"
         x="29.930771"
         y="309.67505" /></clipPath><clipPath
       clipPathUnits="userSpaceOnUse"
       id="clipPath5097"><rect
         style="fill:#808080;fill-opacity:0.92941176;fill-rule:evenodd"
         id="rect5099"
         width="50.455616"
         height="25.992298"
         x="29.930771"
         y="309.67505" /></clipPath><clipPath
       clipPathUnits="userSpaceOnUse"
       id="clipPath5101"><rect
         style="fill:#808080;fill-opacity:0.92941176;fill-rule:evenodd"
         id="rect5103"
         width="50.455616"
         height="25.992298"
         x="29.930771"
         y="309.67505" /></clipPath></defs><sodipodi:namedview
     pagecolor="#ffffff"
     bordercolor="#666666"
     borderopacity="1"
     objecttolerance="10"
     gridtolerance="10"
     guidetolerance="10"
     inkscape:pageopacity="0"
     inkscape:pageshadow="2"
     inkscape:window-width="2560"
     inkscape:window-height="1385"
     id="namedview4"
     showgrid="false"
     units="mm"
     inkscape:zoom="2.48188"
     inkscape:cx="44.664202"
     inkscape:cy="82.309813"
     inkscape:window-x="0"
     inkscape:window-y="27"
     inkscape:window-maximized="1"
     inkscape:current-layer="g10" /><g
     id="g10"
     inkscape:groupmode="layer"
     inkscape:label="Business_Card"
     transform="matrix(1.25,0,0,-1.25,0,205.51123)"><g
       transform="matrix(0.27653146,0,0,-0.27653146,-91.418579,217.5553)"
       id="g5034"><path
         sodipodi:nodetypes="ssssssssss"
         inkscape:connector-curvature="0"
         id="path3018"
         d="m 163.67231,214.97332 c -26.67983,0 -48.45562,21.75036 -48.45562,48.43019 0,26.67983 21.77579,48.45562 48.45562,48.45562 26.67983,0 48.43019,-21.77579 48.43019,-48.45562 0,-26.67983 -21.75036,-48.43019 -48.43019,-48.43019 z m 3e-4,12.22221 c 20.08234,0 36.20768,16.12533 36.20768,36.20768 0,20.08234 -16.12534,36.23371 -36.20768,36.23371 -20.08235,0 -36.23371,-16.15137 -36.23371,-36.23371 0,-20.08235 16.15136,-36.20768 36.23371,-36.20768 z"
         style="font-size:medium;font-style:normal;font-variant:normal;font-weight:normal;font-stretch:normal;text-indent:0;text-align:start;text-decoration:none;line-height:normal;letter-spacing:normal;word-spacing:normal;text-transform:none;direction:ltr;block-progression:tb;writing-mode:lr-tb;text-anchor:start;baseline-shift:baseline;color:#000000;fill:#333333;fill-opacity:1;stroke:#333333;stroke-width:0.72324502;stroke-miterlimit:4;stroke-dasharray:none;marker:none;visibility:visible;display:inline;overflow:visible;enable-background:accumulate;font-family:Sans;-inkscape-font-specification:Sans" /><g
         style="fill:#333333"
         transform="matrix(0.6997283,0,0,0.46072103,105.45016,230.04354)"
         id="g3798"><g
           id="text3806"
           style="font-size:40.59667206px;font-style:normal;font-variant:normal;font-weight:normal;font-stretch:normal;text-align:start;line-height:125%;letter-spacing:0px;word-spacing:0px;writing-mode:lr-tb;text-anchor:start;fill:#333333;fill-opacity:1;stroke:none;font-family:Ubuntu Condensed;-inkscape-font-specification:'Ubuntu Condensed,'"
           transform="scale(0.86492883,1.1561645)"><path
             inkscape:connector-curvature="0"
             id="path3027"
             style="fill:#333333"
             d="m 209.13579,173.86203 c 0.94726,-0.29769 1.9757,-0.54127 3.08535,-0.73074 1.10964,-0.2165 2.12455,-0.32475 3.04475,-0.32478 0.94725,3e-5 1.79978,0.12182 2.55759,0.36537 0.78486,0.2436 1.475,0.64957 2.07043,1.2179 0.70366,-0.46007 1.46147,-0.83897 2.27342,-1.1367 0.81191,-0.29769 1.70504,-0.44654 2.67938,-0.44657 0.9743,3e-5 1.85389,0.14888 2.63878,0.44657 0.81191,0.27066 1.50205,0.74429 2.07043,1.42088 0.56833,0.67663 1.01489,1.59682 1.33969,2.76057 0.32475,1.13673 0.48713,2.55761 0.48716,4.26265 l 0,12.86915 -3.49131,0 0,-12.58497 c -3e-5,-2.11101 -0.24361,-3.65368 -0.73074,-4.62802 -0.48718,-0.9743 -1.40737,-1.46146 -2.76058,-1.46148 -0.51424,2e-5 -1.042,0.0947 -1.58327,0.28418 -0.51424,0.18947 -1.0014,0.44658 -1.46148,0.77133 0.2165,0.6225 0.37889,1.32618 0.48716,2.11103 0.10824,0.78488 0.16237,1.66448 0.16239,2.63878 l 0,12.86915 -3.49131,0 0,-12.58497 c -2e-5,-2.11101 -0.2436,-3.65368 -0.73074,-4.62802 -0.48718,-0.9743 -1.40737,-1.46146 -2.76058,-1.46148 -0.70368,2e-5 -1.50208,0.13534 -2.3952,0.40597 l 0,18.2685 -3.49132,0 0,-20.7043" /><path
             inkscape:connector-curvature="0"
             id="path3029"
             style="fill:#333333"
             d="m 237.76723,173.69964 c 0.70367,-0.29769 1.44794,-0.52773 2.23282,-0.69014 0.78486,-0.18943 1.63739,-0.28416 2.55759,-0.28418 1.8945,2e-5 3.43717,0.59544 4.62802,1.78625 1.19082,1.16379 1.78624,2.99064 1.78625,5.48055 l 0,14.12765 c -0.97433,0.27064 -1.97572,0.48716 -3.00415,0.64954 -1.0014,0.16239 -1.98925,0.24358 -2.96356,0.24358 -0.97433,0 -1.89452,-0.12179 -2.76057,-0.36537 -0.83901,-0.24358 -1.58328,-0.63601 -2.23282,-1.1773 -0.62248,-0.54129 -1.12318,-1.2179 -1.50208,-2.02983 -0.3789,-0.839 -0.56835,-1.85391 -0.56835,-3.04475 0,-1.10964 0.16239,-2.07043 0.48716,-2.88237 0.35184,-0.83899 0.82546,-1.52913 1.42088,-2.07043 0.59542,-0.56834 1.29909,-0.98784 2.11103,-1.2585 0.81193,-0.29769 1.69152,-0.44655 2.63878,-0.44656 0.89312,1e-5 1.88097,0.10827 2.96356,0.32477 l 0,-1.94864 c -1e-5,-1.56972 -0.31125,-2.66583 -0.93372,-3.28833 -0.59543,-0.62246 -1.46149,-0.9337 -2.59819,-0.93372 -0.62249,2e-5 -1.21791,0.0677 -1.78625,0.20298 -0.5413,0.10828 -1.12318,0.29773 -1.74566,0.56836 l -0.73074,-2.96356 m 1.66446,14.6554 c 0,1.24497 0.32477,2.16516 0.97432,2.76057 0.64954,0.59542 1.56973,0.89313 2.76058,0.89313 0.73073,0 1.52913,-0.0947 2.3952,-0.28418 l 0,-6.77964 c -0.81194,-0.21651 -1.61034,-0.32476 -2.3952,-0.32477 -0.51423,1e-5 -1.00139,0.0677 -1.46148,0.20298 -0.4601,0.10827 -0.86607,0.31125 -1.2179,0.60895 -0.32478,0.27065 -0.58189,0.64955 -0.77134,1.13671 -0.18946,0.4601 -0.28418,1.05552 -0.28418,1.78625" /><path
             inkscape:connector-curvature="0"
             id="path3031"
             style="fill:#333333"
             d="m 255.04492,173.86203 c 1.00138,-0.29769 2.08396,-0.54127 3.24773,-0.73074 1.16377,-0.2165 2.23281,-0.32475 3.20714,-0.32478 1.0555,3e-5 2.01629,0.14888 2.88236,0.44657 0.86605,0.27066 1.59679,0.74429 2.19223,1.42088 0.62246,0.67663 1.09609,1.59682 1.42088,2.76057 0.35182,1.13673 0.52774,2.55761 0.52776,4.26265 l 0,12.86915 -3.49132,0 0,-12.58497 c -10e-6,-2.11101 -0.27066,-3.65368 -0.81193,-4.62802 -0.5413,-0.9743 -1.55622,-1.46146 -3.04475,-1.46148 -0.78488,2e-5 -1.66447,0.13534 -2.63879,0.40597 l 0,18.2685 -3.49131,0 0,-20.7043" /><path
             inkscape:connector-curvature="0"
             id="path3033"
             style="fill:#333333"
             d="m 278.9868,190.14129 c 0.78486,-2.70643 1.50207,-5.42641 2.15163,-8.15993 0.64953,-2.73349 1.27201,-5.64292 1.86744,-8.72828 l 3.45072,0 c -0.40598,1.97572 -0.85254,3.92436 -1.33969,5.84592 -0.46011,1.92159 -0.94727,3.7755 -1.46148,5.56174 -0.48717,1.78626 -0.98786,3.47779 -1.50208,5.07459 -0.48717,1.56974 -0.94726,3.00415 -1.38028,4.30324 -0.51424,1.51561 -1.01493,2.78764 -1.50208,3.81609 -0.4601,1.05551 -0.97433,1.89451 -1.54267,2.51699 -0.5413,0.64954 -1.13672,1.10964 -1.78626,1.38029 -0.64955,0.2977 -1.42088,0.44656 -2.31401,0.44656 -0.48716,0 -0.97432,-0.0677 -1.46148,-0.20298 -0.48716,-0.10826 -0.89312,-0.23005 -1.2179,-0.36537 l 0.64955,-2.84177 c 0.70367,0.29771 1.36675,0.44656 1.98924,0.44657 0.78486,-1e-5 1.42088,-0.28418 1.90804,-0.85253 0.48715,-0.56836 0.96078,-1.42089 1.42088,-2.55759 l 0.40597,-1.01492 c -0.51423,-1.40735 -1.04199,-2.96355 -1.58327,-4.66862 -0.51423,-1.73212 -1.02845,-3.5319 -1.54267,-5.39935 -0.48717,-1.86744 -0.96079,-3.77548 -1.42089,-5.72414 -0.46009,-1.97568 -0.87959,-3.89726 -1.25849,-5.76472 l 3.69429,0 c 0.21651,1.27205 0.47363,2.66586 0.77134,4.18145 0.2977,1.51563 0.60894,3.03124 0.93372,4.54683 0.35183,1.51562 0.70367,2.99063 1.05552,4.42504 0.35183,1.40736 0.69013,2.65232 1.01491,3.73489" /></g><g
           id="text3810"
           style="font-size:38.19150543px;font-style:normal;font-variant:normal;font-weight:normal;font-stretch:normal;text-align:start;line-height:125%;letter-spacing:0px;word-spacing:0px;writing-mode:lr-tb;text-anchor:start;fill:#333333;fill-opacity:1;stroke:none;font-family:Ubuntu Condensed;-inkscape-font-specification:'Ubuntu Condensed,'"
           transform="scale(0.81368581,1.2289756)"><path
             inkscape:connector-curvature="0"
             id="path3011"
             style="font-weight:500;fill:#333333;font-family:Ubuntu;-inkscape-font-specification:Ubuntu Medium"
             d="m 98.128211,172.9948 c -1.6e-5,-1.96048 -0.394661,-3.5136 -1.183937,-4.65936 -0.763844,-1.14573 -1.985971,-1.7186 -3.666384,-1.71862 -0.763841,2e-5 -1.489479,0.11459 -2.176916,0.34373 -0.661994,0.22916 -1.196675,0.48377 -1.604043,0.76383 l 0,11.49564 c 0.330985,0.0764 0.751091,0.15277 1.26032,0.22915 0.534671,0.0509 1.171196,0.0764 1.909575,0.0764 1.705875,0 3.042576,-0.57287 4.010108,-1.71862 0.967502,-1.1712 1.451261,-2.77524 1.451277,-4.81213 m 4.735749,0.0764 c -2e-5,1.60405 -0.2419,3.05532 -0.72564,4.35383 -0.45832,1.27305 -1.13303,2.36787 -2.02415,3.28447 -0.865692,0.9166 -1.922323,1.61677 -3.169896,2.10053 -1.247602,0.48376 -2.660687,0.72564 -4.239257,0.72564 -1.527669,0 -2.991675,-0.11458 -4.392023,-0.34372 -1.374899,-0.22915 -2.520643,-0.48376 -3.437235,-0.76383 l 0,-28.26172 4.621172,-0.76383 0,10.3499 c 0.534673,-0.28005 1.183928,-0.53466 1.947767,-0.76383 0.78928,-0.22913 1.654954,-0.3437 2.597022,-0.34372 1.400342,2e-5 2.64793,0.25463 3.742768,0.76383 1.120267,0.48377 2.049592,1.18395 2.787982,2.10053 0.73835,0.91661 1.29849,2.02416 1.68042,3.32266 0.40736,1.27306 0.61105,2.68615 0.61107,4.23926" /><path
             inkscape:connector-curvature="0"
             id="path3013"
             style="font-weight:500;fill:#333333;font-family:Ubuntu;-inkscape-font-specification:Ubuntu Medium"
             d="m 123.48677,163.06501 c -2.06236,7.58739 -4.45569,14.46186 -7.18,20.62341 -0.50923,1.14575 -1.03118,2.126 -1.56585,2.94075 -0.53469,0.81475 -1.13303,1.48946 -1.795,2.02415 -0.662,0.53468 -1.40036,0.91659 -2.21511,1.14575 -0.81476,0.2546 -1.75681,0.3819 -2.82617,0.38191 -0.71291,-1e-5 -1.42582,-0.0764 -2.13873,-0.22915 -0.68744,-0.15277 -1.20939,-0.31827 -1.56585,-0.49649 l 0.84022,-3.70457 c 0.91659,0.35645 1.82046,0.53467 2.71159,0.53468 1.19667,-1e-5 2.12599,-0.29281 2.78798,-0.87841 0.68744,-0.56014 1.28578,-1.43854 1.795,-2.63521 -1.45128,-2.80071 -2.85163,-5.85603 -4.20106,-9.16596 -1.32398,-3.30992 -2.50791,-6.82354 -3.55181,-10.54086 l 4.9267,0 c 0.25461,1.06938 0.56014,2.22786 0.9166,3.47543 0.38191,1.2476 0.78928,2.52065 1.22213,3.81915 0.43283,1.27306 0.89112,2.54611 1.37489,3.81915 0.48375,1.27306 0.96751,2.45699 1.45128,3.55181 0.81474,-2.26602 1.57857,-4.67208 2.29149,-7.21819 0.71289,-2.57155 1.36215,-5.054 1.94777,-7.44735 l 4.77393,0" /><path
             inkscape:connector-curvature="0"
             id="path3015"
             style="font-weight:500;fill:#333333;font-family:Ubuntu;-inkscape-font-specification:Ubuntu Medium"
             d="m 126.79153,157.79458 4.62117,-0.76383 0,6.03426 7.10362,0 0,3.85734 -7.10362,0 0,8.13479 c -1e-5,1.60405 0.2546,2.7498 0.76383,3.43724 0.50921,0.68745 1.37489,1.03117 2.59702,1.03117 0.84021,0 1.57857,-0.0891 2.21511,-0.26734 0.66197,-0.17822 1.18392,-0.34372 1.56585,-0.49649 l 0.76383,3.66639 c -0.53469,0.22914 -1.23487,0.45829 -2.10053,0.68744 -0.86569,0.25461 -1.88412,0.38192 -3.05532,0.38192 -1.42582,0 -2.62249,-0.19096 -3.59,-0.57288 -0.94206,-0.38191 -1.69316,-0.92932 -2.2533,-1.64223 -0.56015,-0.73837 -0.95479,-1.61677 -1.18394,-2.63521 -0.22915,-1.0439 -0.34372,-2.22784 -0.34372,-3.55181 l 0,-17.30076" /><path
             inkscape:connector-curvature="0"
             id="path3017"
             style="font-weight:500;fill:#333333;font-family:Ubuntu;-inkscape-font-specification:Ubuntu Medium"
             d="m 141.50302,173.14757 c 0,-1.7568 0.25461,-3.29719 0.76383,-4.62117 0.53468,-1.32396 1.23485,-2.41878 2.10053,-3.28447 0.86567,-0.89112 1.85865,-1.5531 2.97894,-1.98596 1.12027,-0.45828 2.26602,-0.68743 3.43723,-0.68745 2.74978,2e-5 4.8885,0.85297 6.41618,2.55883 1.5531,1.70591 2.32966,4.252 2.32968,7.6383 -2e-5,0.25462 -0.0128,0.54743 -0.0382,0.87841 -2e-5,0.30554 -0.0128,0.58561 -0.0382,0.84021 l -13.17607,0 c 0.1273,1.60405 0.68744,2.85164 1.68042,3.74277 1.01843,0.86568 2.48244,1.29851 4.39203,1.29851 1.12027,0 2.13871,-0.10184 3.05532,-0.30553 0.94204,-0.20369 1.68041,-0.4201 2.2151,-0.64926 l 0.61107,3.78096 c -0.25463,0.12731 -0.61108,0.26734 -1.06936,0.42011 -0.43286,0.1273 -0.94208,0.24188 -1.52766,0.34372 -0.56016,0.12731 -1.17123,0.22915 -1.8332,0.30553 -0.662,0.0764 -1.33671,0.11458 -2.02415,0.11458 -1.75682,0 -3.28447,-0.25461 -4.58298,-0.76383 -1.29851,-0.53468 -2.36788,-1.26032 -3.20808,-2.17692 -0.84022,-0.94205 -1.46401,-2.03687 -1.87139,-3.28447 -0.40738,-1.27304 -0.61106,-2.66066 -0.61106,-4.16287 m 13.40522,-2.06234 c -2e-5,-0.63651 -0.0891,-1.23485 -0.26734,-1.795 -0.17825,-0.58559 -0.44559,-1.08208 -0.80202,-1.48947 -0.33101,-0.43282 -0.75112,-0.76382 -1.26032,-0.99298 -0.48378,-0.25459 -1.06938,-0.3819 -1.75681,-0.38192 -0.71292,2e-5 -1.33672,0.14006 -1.87139,0.42011 -0.53469,0.25463 -0.99299,0.59835 -1.37489,1.03117 -0.35646,0.43285 -0.63653,0.92934 -0.84021,1.48947 -0.2037,0.56016 -0.34374,1.13303 -0.42011,1.71862 l 8.59309,0" /></g><g
           id="text3816"
           style="font-size:40.59667206px;font-style:normal;font-variant:normal;font-weight:normal;font-stretch:normal;text-align:start;line-height:125%;letter-spacing:0px;word-spacing:0px;writing-mode:lr-tb;text-anchor:start;fill:#333333;fill-opacity:1;stroke:none;font-family:Ubuntu Condensed;-inkscape-font-specification:'Ubuntu Condensed,'"
           transform="scale(0.86492883,1.1561645)"><path
             inkscape:connector-curvature="0"
             id="path3004"
             style="fill:#333333"
             d="m 37.237084,183.93 c -1.7e-5,1.67801 -0.148871,3.20715 -0.446563,4.58743 -0.297725,1.35322 -0.75782,2.51699 -1.380287,3.49131 -0.595432,0.97432 -1.366768,1.73213 -2.31401,2.27341 -0.920203,0.54129 -2.016312,0.81194 -3.288331,0.81194 -1.272037,0 -2.381678,-0.27065 -3.328927,-0.81194 -0.947261,-0.54128 -1.732129,-1.29909 -2.354607,-2.27341 -0.595421,-0.97432 -1.041984,-2.13809 -1.33969,-3.49131 -0.297711,-1.38028 -0.446565,-2.90942 -0.446563,-4.58743 -2e-6,-1.65092 0.148852,-3.16652 0.446563,-4.54683 0.297706,-1.38027 0.744269,-2.55757 1.33969,-3.53191 0.622478,-1.00136 1.407346,-1.7727 2.354607,-2.31401 0.947249,-0.54126 2.05689,-0.81191 3.328927,-0.81193 1.272019,2e-5 2.368128,0.27067 3.288331,0.81193 0.947242,0.54131 1.718578,1.31265 2.31401,2.31401 0.622467,0.97434 1.082562,2.15164 1.380287,3.53191 0.297692,1.38031 0.446546,2.89591 0.446563,4.54683 m -3.6537,0 c -1.3e-5,-1.19082 -0.06767,-2.2734 -0.202984,-3.24773 -0.135335,-1.00137 -0.35185,-1.8539 -0.649546,-2.55759 -0.297721,-0.73073 -0.690155,-1.28555 -1.177304,-1.66447 -0.487171,-0.40594 -1.069056,-0.60893 -1.745657,-0.60895 -0.703684,2e-5 -1.299101,0.20301 -1.786253,0.60895 -0.460103,0.37892 -0.852537,0.93374 -1.177304,1.66447 -0.297715,0.70369 -0.51423,1.55622 -0.649547,2.55759 -0.135327,0.97433 -0.202989,2.05691 -0.202983,3.24773 -6e-6,1.19085 0.06766,2.28696 0.202983,3.28833 0.135317,0.97433 0.351832,1.81333 0.649547,2.517 0.324767,0.70368 0.717201,1.2585 1.177304,1.66446 0.487152,0.3789 1.082569,0.56836 1.786253,0.56835 0.676601,1e-5 1.258486,-0.18945 1.745657,-0.56835 0.487149,-0.40596 0.879583,-0.96078 1.177304,-1.66446 0.297696,-0.70367 0.514211,-1.54267 0.649546,-2.517 0.13531,-1.00137 0.202971,-2.09748 0.202984,-3.28833" /><path
             inkscape:connector-curvature="0"
             id="path3006"
             style="fill:#333333"
             d="m 42.347824,173.86203 c 1.001381,-0.29769 2.083958,-0.54127 3.247734,-0.73074 1.163764,-0.2165 2.232808,-0.32475 3.207137,-0.32478 1.055503,3e-5 2.01629,0.14888 2.882364,0.44657 0.866049,0.27066 1.596788,0.74429 2.19222,1.42088 0.622467,0.67663 1.096095,1.59682 1.420884,2.76057 0.351821,1.13673 0.52774,2.55761 0.527756,4.26265 l 0,12.86915 -3.491313,0 0,-12.58497 c -1.3e-5,-2.11101 -0.270658,-3.65368 -0.811934,-4.62802 -0.541301,-0.9743 -1.556216,-1.46146 -3.04475,-1.46148 -0.784878,2e-5 -1.664471,0.13534 -2.638784,0.40597 l 0,18.2685 -3.491314,0 0,-20.7043" /><path
             inkscape:connector-curvature="0"
             id="path3008"
             style="fill:#333333"
             d="m 64.327751,184.94492 c 0.02706,1.02846 0.121784,1.97571 0.284176,2.84177 0.162381,0.839 0.419493,1.58327 0.771337,2.23281 0.378895,0.62249 0.866055,1.10965 1.46148,1.46148 0.622474,0.35184 1.407342,0.52776 2.354607,0.52776 0.784858,0 1.502065,-0.10826 2.151624,-0.32477 0.676598,-0.24358 1.163757,-0.44656 1.46148,-0.60895 l 0.649547,2.80117 c -0.351852,0.24358 -0.94727,0.50069 -1.786254,0.77133 -0.811945,0.29771 -1.786265,0.44657 -2.92296,0.44657 -1.488553,0 -2.747049,-0.27065 -3.775491,-0.81194 -1.001389,-0.54128 -1.826854,-1.29909 -2.476397,-2.27341 -0.622485,-0.97432 -1.069048,-2.13809 -1.33969,-3.49131 -0.270646,-1.35322 -0.405969,-2.84176 -0.405967,-4.46564 -2e-6,-3.92433 0.649545,-6.79316 1.948641,-8.60649 1.299088,-1.8133 3.017679,-2.71996 5.155777,-2.71998 2.408724,2e-5 4.113783,0.90668 5.115181,2.71998 1.001369,1.81333 1.502061,4.35739 1.502077,7.63217 -1.6e-5,0.29772 -1.6e-5,0.60896 0,0.93373 -1.6e-5,0.29771 -0.01355,0.60896 -0.0406,0.93372 l -10.108571,0 m 3.53191,-9.25604 c -1.163779,2e-5 -2.016308,0.5819 -2.55759,1.74565 -0.514231,1.16379 -0.825472,2.72 -0.933724,4.66862 l 6.454871,0 c -1.2e-5,-1.97569 -0.202995,-3.53189 -0.60895,-4.66862 -0.405978,-1.16375 -1.190846,-1.74563 -2.354607,-1.74565" /></g><g
           id="text3824"
           style="font-size:40.59667206px;font-style:normal;font-variant:normal;font-weight:normal;font-stretch:normal;text-align:start;line-height:125%;letter-spacing:0px;word-spacing:0px;writing-mode:lr-tb;text-anchor:start;fill:#333333;fill-opacity:1;stroke:none;font-family:Ubuntu Condensed;-inkscape-font-specification:'Ubuntu Condensed,'"
           transform="scale(0.86492883,1.1561645)"><path
             inkscape:connector-curvature="0"
             id="path3020"
             style="fill:#333333"
             d="m 160.83351,173.25308 5.35876,0 0,3.00415 -5.35876,0 0,11.73244 c -1e-5,1.46148 0.2571,2.48993 0.77134,3.08535 0.54128,0.56835 1.25848,0.85253 2.15162,0.85253 0.46009,0 0.89312,-0.0677 1.29909,-0.20299 0.43302,-0.13532 0.79839,-0.2977 1.09611,-0.48716 l 0.69015,2.80117 c -1.10966,0.64955 -2.28696,0.97432 -3.53191,0.97432 -2.00278,0 -3.50485,-0.55482 -4.50623,-1.66446 -0.97433,-1.1367 -1.46149,-3.00415 -1.46148,-5.60234 l 0,-20.21714 3.49131,-0.60895 0,6.33308" /><path
             inkscape:connector-curvature="0"
             id="path3022"
             style="fill:#333333"
             d="m 184.0326,183.93 c -1e-5,1.67801 -0.14887,3.20715 -0.44656,4.58743 -0.29772,1.35322 -0.75782,2.51699 -1.38029,3.49131 -0.59543,0.97432 -1.36676,1.73213 -2.31401,2.27341 -0.9202,0.54129 -2.01631,0.81194 -3.28833,0.81194 -1.27203,0 -2.38168,-0.27065 -3.32892,-0.81194 -0.94726,-0.54128 -1.73213,-1.29909 -2.35461,-2.27341 -0.59542,-0.97432 -1.04198,-2.13809 -1.33969,-3.49131 -0.29771,-1.38028 -0.44657,-2.90942 -0.44656,-4.58743 -1e-5,-1.65092 0.14885,-3.16652 0.44656,-4.54683 0.29771,-1.38027 0.74427,-2.55757 1.33969,-3.53191 0.62248,-1.00136 1.40735,-1.7727 2.35461,-2.31401 0.94724,-0.54126 2.05689,-0.81191 3.32892,-0.81193 1.27202,2e-5 2.36813,0.27067 3.28833,0.81193 0.94725,0.54131 1.71858,1.31265 2.31401,2.31401 0.62247,0.97434 1.08257,2.15164 1.38029,3.53191 0.29769,1.38031 0.44655,2.89591 0.44656,4.54683 m -3.6537,0 c -10e-6,-1.19082 -0.0677,-2.2734 -0.20298,-3.24773 -0.13533,-1.00137 -0.35185,-1.8539 -0.64955,-2.55759 -0.29772,-0.73073 -0.69015,-1.28555 -1.1773,-1.66447 -0.48717,-0.40594 -1.06906,-0.60893 -1.74566,-0.60895 -0.70368,2e-5 -1.2991,0.20301 -1.78625,0.60895 -0.4601,0.37892 -0.85254,0.93374 -1.1773,1.66447 -0.29772,0.70369 -0.51423,1.55622 -0.64955,2.55759 -0.13533,0.97433 -0.20299,2.05691 -0.20298,3.24773 -1e-5,1.19085 0.0677,2.28696 0.20298,3.28833 0.13532,0.97433 0.35183,1.81333 0.64955,2.517 0.32476,0.70368 0.7172,1.2585 1.1773,1.66446 0.48715,0.3789 1.08257,0.56836 1.78625,0.56835 0.6766,1e-5 1.25849,-0.18945 1.74566,-0.56835 0.48715,-0.40596 0.87958,-0.96078 1.1773,-1.66446 0.2977,-0.70367 0.51422,-1.54267 0.64955,-2.517 0.13531,-1.00137 0.20297,-2.09748 0.20298,-3.28833" /><path
             inkscape:connector-curvature="0"
             id="path3024"
             style="fill:#333333"
             d="m 202.82442,183.93 c -2e-5,1.67801 -0.14887,3.20715 -0.44656,4.58743 -0.29773,1.35322 -0.75782,2.51699 -1.38029,3.49131 -0.59543,0.97432 -1.36677,1.73213 -2.31401,2.27341 -0.9202,0.54129 -2.01631,0.81194 -3.28833,0.81194 -1.27204,0 -2.38168,-0.27065 -3.32893,-0.81194 -0.94726,-0.54128 -1.73213,-1.29909 -2.3546,-2.27341 -0.59542,-0.97432 -1.04199,-2.13809 -1.33969,-3.49131 -0.29771,-1.38028 -0.44657,-2.90942 -0.44657,-4.58743 0,-1.65092 0.14886,-3.16652 0.44657,-4.54683 0.2977,-1.38027 0.74427,-2.55757 1.33969,-3.53191 0.62247,-1.00136 1.40734,-1.7727 2.3546,-2.31401 0.94725,-0.54126 2.05689,-0.81191 3.32893,-0.81193 1.27202,2e-5 2.36813,0.27067 3.28833,0.81193 0.94724,0.54131 1.71858,1.31265 2.31401,2.31401 0.62247,0.97434 1.08256,2.15164 1.38029,3.53191 0.29769,1.38031 0.44654,2.89591 0.44656,4.54683 m -3.6537,0 c -10e-6,-1.19082 -0.0677,-2.2734 -0.20298,-3.24773 -0.13534,-1.00137 -0.35185,-1.8539 -0.64955,-2.55759 -0.29772,-0.73073 -0.69015,-1.28555 -1.1773,-1.66447 -0.48717,-0.40594 -1.06906,-0.60893 -1.74566,-0.60895 -0.70368,2e-5 -1.2991,0.20301 -1.78625,0.60895 -0.46011,0.37892 -0.85254,0.93374 -1.17731,1.66447 -0.29771,0.70369 -0.51423,1.55622 -0.64954,2.55759 -0.13533,0.97433 -0.20299,2.05691 -0.20299,3.24773 0,1.19085 0.0677,2.28696 0.20299,3.28833 0.13531,0.97433 0.35183,1.81333 0.64954,2.517 0.32477,0.70368 0.7172,1.2585 1.17731,1.66446 0.48715,0.3789 1.08257,0.56836 1.78625,0.56835 0.6766,1e-5 1.25849,-0.18945 1.74566,-0.56835 0.48715,-0.40596 0.87958,-0.96078 1.1773,-1.66446 0.2977,-0.70367 0.51421,-1.54267 0.64955,-2.517 0.13531,-1.00137 0.20297,-2.09748 0.20298,-3.28833" /></g></g><path
         style="fill:#333333;stroke:#333333;stroke-width:0.72324502;stroke-linecap:round;stroke-miterlimit:4;stroke-dasharray:none;stroke-dashoffset:0;marker-start:none"
         inkscape:connector-curvature="0"
         id="path3168"
         d="m 283.62164,283.62686 c 0,-10.82653 -4.44619,-18.56097 -13.33324,-23.2013 6.95144,-4.92975 10.42902,-11.31076 10.42902,-19.1413 0,-9.28179 -3.56505,-16.3366 -10.6925,-21.17143 -5.8983,-4.05997 -13.28949,-6.09012 -22.17867,-6.09012 l -47.5232,0 0,98.31668 45.80734,0 c 9.85484,0 18.03997,-1.93406 24.55377,-5.8007 8.62462,-5.02584 12.93748,-12.66418 12.93748,-22.91183 l 0,0 z M 268.0445,240.70422 c 0,4.64003 -1.9148,8.17037 -5.74309,10.58601 -3.82852,2.41683 -8.7777,3.6241 -14.85013,3.6241 l -34.45451,0 0,-28.27634 34.58572,0 c 6.07244,0 10.99999,1.18556 14.78454,3.55316 3.78346,2.36997 5.67747,5.87277 5.67747,10.51307 l 0,0 z m 2.90449,42.99586 c 0,5.24555 -2.32738,9.27595 -6.98078,12.09002 -4.1275,2.62278 -9.57057,3.93284 -16.33238,3.93284 l -34.63906,0 0,-32.19219 34.11181,0 c 7.19838,0 12.97188,1.31125 17.31913,3.93315 4.34591,2.62482 6.52128,6.70325 6.52128,12.23618 l 0,0 z" /><g
         clip-path="url(#clipPath3427)"
         transform="matrix(0.62785322,0.62785322,-0.62785322,0.62785322,303.20755,72.381654)"
         id="g3418"
         style="fill:#7e5d5d;fill-opacity:1"><path
           inkscape:connector-curvature="0"
           id="path3396"
           d="m 21.346161,288.95565 -5.35135,0 0,-5.35135 0,-5.35135 5.35135,0 5.35135,0 0,5.35135 0,5.35135 -5.35135,0 z m 0,-1.52894 3.8224,0 0,-3.82241 0,-3.82239 -3.8224,0 -3.82238,0 0,3.82239 0,3.82241 3.82238,0 z m 0,-1.52897 -2.29344,0 0,-2.29344 0,-2.29343 2.29344,0 2.29344,0 0,2.29343 0,2.29344 -2.29344,0 z m 7.6448,3.05791 -0.76448,0 0,-0.76446 0,-0.76448 0.76448,0 0.76447,0 0,0.76448 0,0.76446 -0.76447,0 z m 3.82239,0 -1.52895,0 0,-0.76446 0,-0.76448 1.52895,0 1.52896,0 0,-0.76449 0,-0.76448 0.76448,0 0.76448,0 0,-0.76447 0,-0.76448 0.76448,0 0.76448,0 0,1.52895 0,1.52897 1.52896,0 1.52895,0 0,0.76448 0,0.76446 -1.52895,0 -1.52896,0 0,-0.76446 0,-0.76448 -1.52896,0 -1.52896,0 0,0.76448 0,0.76446 -1.52896,0 z m 12.99615,0 -0.76449,0 0,-0.76446 0,-0.76448 0.76449,0 0.76448,0 0,0.76448 0,0.76446 -0.76448,0 z m 10.70271,0 -5.35136,0 0,-0.76446 0,-0.76448 -0.76447,0 -0.76448,0 0,-0.76449 0,-0.76448 -0.76448,0 -0.76449,0 0,-2.29344 0,-2.29343 -0.76447,0 -0.76448,0 0,0.76449 0,0.76446 -0.76448,0 -0.76449,0 0,-0.76446 0,-0.76449 0.76449,0 0.76448,0 0,-0.76448 0,-0.76448 -0.76448,0 -0.76449,0 0,-1.52896 0,-1.52896 0.76449,0 0.76448,0 0,-0.76448 0,-0.76448 -1.52897,0 -1.52895,0 0,-0.76447 0,-0.76449 -0.76448,0 -0.76448,0 0,1.52896 0,1.52896 0.76448,0 0.76448,0 0,0.76448 0,0.76448 -0.76448,0 -0.76448,0 0,-0.76448 0,-0.76448 -0.76447,0 -0.76449,0 0,1.52896 0,1.52896 -0.76448,0 -0.76447,0 0,-1.52896 0,-1.52896 0.76447,0 0.76448,0 0,-0.76448 0,-0.76448 -0.76448,0 -0.76447,0 0,-0.76447 0,-0.76449 0.76447,0 0.76448,0 0,-2.29343 0,-2.29344 -2.29343,0 -2.29344,0 0,1.52895 0,1.52897 0.76448,0 0.76448,0 0,-0.76448 0,-0.76449 0.76448,0 0.76448,0 0,0.76449 0,0.76448 -0.76448,0 -0.76448,0 0,3.05791 0,3.05792 -1.52896,0 -1.52896,0 0,-1.52896 0,-1.52896 -0.76447,0 -0.76449,0 0,3.05792 0,3.05792 1.52896,0 1.52896,0 0,-0.76448 0,-0.76448 0.76448,0 0.76448,0 0,0.76448 0,0.76448 0.76448,0 0.76448,0 0,0.76449 0,0.76446 -0.76448,0 -0.76448,0 0,-0.76446 0,-0.76449 -0.76448,0 -0.76448,0 0,0.76449 0,0.76446 -1.52896,0 -1.52896,0 0,0.76448 0,0.76449 -0.76448,0 -0.76447,0 0,0.76448 0,0.76447 -1.52897,0 -1.52895,0 0,-0.76447 0,-0.76448 1.52895,0 1.52897,0 0,-0.76449 0,-0.76448 0.76447,0 0.76448,0 0,-0.76446 0,-0.76449 -0.76448,0 -0.76447,0 0,-0.76448 0,-0.76448 -1.52897,0 -1.52895,0 0,-1.52896 0,-1.52896 -1.52897,0 -1.52895,0 0,-0.76448 0,-0.76448 -2.29343,0 -2.29345,0 0,-1.52896 0,-1.52895 3.05792,0 3.05791,0 0,-0.76448 0,-0.76449 -0.76446,0 -0.76449,0 0,-0.76447 0,-0.76448 0.76449,0 0.76446,0 0,-0.76448 0,-0.76449 -1.52895,0 -1.52896,0 0,0.76449 0,0.76448 -1.52896,0 -1.52896,0 0,0.76448 0,0.76447 -2.29343,0 -2.29344,0 0,-1.52895 0,-1.52897 0.76448,0 0.76449,0 0,-0.76447 0,-0.76448 -0.76449,0 -0.76448,0 0,-2.29343 0,-2.29345 0.76448,0 0.76449,0 0,-1.52895 0,-1.52896 0.76447,0 0.76447,0 0,2.29344 0,2.29343 1.52896,0 1.52896,0 0,0.76449 0,0.76447 -0.76448,0 -0.76448,0 0,0.76448 0,0.76448 3.05792,0 3.05791,0 0,-0.76448 0,-0.76448 -1.52895,0 -1.52896,0 0,-0.76447 0,-0.76449 1.52896,0 1.52895,0 0,-0.76448 0,-0.76448 -0.76446,0 -0.76449,0 0,-0.76447 0,-0.76448 -0.76449,0 -0.76447,0 0,0.76448 0,0.76447 -0.76447,0 -0.76449,0 0,-0.76447 0,-0.76448 -0.76448,0 -0.76448,0 0,-0.76448 0,-0.76448 0.76448,0 0.76448,0 0,-0.76448 0,-0.76448 2.29343,0 2.29344,0 0,-0.76448 0,-0.76448 -0.76446,0 -0.76449,0 0,-0.76448 0,-0.76448 -0.76449,0 -0.76447,0 0,0.76448 0,0.76448 -0.76447,0 -0.76449,0 0,-1.52896 0,-1.52896 1.52896,0 1.52896,0 0,-0.76447 0,-0.76449 1.52895,0 1.52897,0 0,0.76449 0,0.76447 -1.52897,0 -1.52895,0 0,0.76449 0,0.76447 0.76449,0 0.76446,0 0,0.76448 0,0.76448 1.52897,0 1.52895,0 0,-1.52896 0,-1.52896 0.76449,0 0.76448,0 0,-2.29343 0,-2.29344 0.76447,0 0.76448,0 0,-1.52896 0,-1.52896 -0.76448,0 -0.76447,0 0,0.76448 0,0.76448 -0.76448,0 -0.76449,0 0,1.52896 0,1.52895 -0.76447,0 -0.76448,0 0,-1.52895 0,-1.52896 0.76448,0 0.76447,0 0,-1.52896 0,-1.52896 -0.76447,0 -0.76448,0 0,-0.76447 0,-0.76449 0.76448,0 0.76447,0 0,-0.76448 0,-0.76448 -0.76447,0 -0.76448,0 0,-0.76447 0,-0.76448 0.76448,0 0.76447,0 0,0.76448 0,0.76447 0.76449,0 0.76448,0 0,-0.76447 0,-0.76448 1.52895,0 1.52896,0 0,0.76448 0,0.76447 0.76448,0 0.76448,0 0,-0.76447 0,-0.76448 1.52896,0 1.52896,0 0,0.76448 0,0.76447 -1.52896,0 -1.52896,0 0,0.76448 0,0.76448 0.76448,0 0.76448,0 0,0.76449 0,0.76447 -1.52896,0 -1.52896,0 0,2.29344 0,2.29344 0.76448,0 0.76448,0 0,-0.76449 0,-0.76447 1.52896,0 1.52896,0 0,-1.52896 0,-1.52896 0.76447,0 0.76448,0 0,2.29344 0,2.29344 0.76449,0 0.76447,0 0,-0.76449 0,-0.76447 1.52896,0 1.52895,0 0,-1.52896 0,-1.52896 0.76449,0 0.76448,0 0,2.29344 0,2.29344 0.76448,0 0.76447,0 0,-0.76449 0,-0.76447 1.52897,0 1.52895,0 0,-1.52896 0,-1.52896 -0.76447,0 -0.76448,0 0,0.76448 0,0.76448 -0.76448,0 -0.76449,0 0,-1.52896 0,-1.52896 -0.76447,0 -0.76448,0 0,-0.76448 0,-0.76448 0.76448,0 0.76447,0 0,0.76448 0,0.76448 0.76449,0 0.76448,0 0,-1.52896 0,-1.52895 0.76448,0 0.76447,0 0,2.29343 0,2.29344 1.52897,0 1.52895,0 0,0.76448 0,0.76448 -0.76448,0 -0.76447,0 0,1.52896 0,1.52896 0.76447,0 0.76448,0 0,0.76448 0,0.76447 -0.76448,0 -0.76447,0 0,-0.76447 0,-0.76448 -0.76448,0 -0.76449,0 0,0.76448 0,0.76447 -0.76447,0 -0.76448,0 0,-0.76447 0,-0.76448 -0.76448,0 -0.76449,0 0,3.05791 0,3.05792 0.76449,0 0.76448,0 0,0.76448 0,0.76448 0.76448,0 0.76447,0 0,-2.29343 0,-2.29345 1.52897,0 1.52895,0 0,2.29345 0,2.29343 0.76448,0 0.76448,0 0,-1.52896 0,-1.52896 0.76448,0 0.76448,0 0,-0.76447 0,-0.76449 0.76448,0 0.76448,0 0,0.76449 0,0.76447 -0.76448,0 -0.76448,0 0,1.52896 0,1.52896 1.52896,0 1.52895,0 0,-1.52896 0,-1.52896 0.76449,0 0.76448,0 0,-0.76447 0,-0.76449 0.76448,0 0.76447,0 0,0.76449 0,0.76447 0.76448,0 0.76449,0 0,-0.76447 0,-0.76449 0.76448,0 0.76446,0 0,3.05792 0,3.05792 -1.52894,0 -1.52897,0 0,-0.76448 0,-0.76448 -0.76447,0 -0.76448,0 0,0.76448 0,0.76448 -1.52897,0 -1.52895,0 0,2.29344 0,2.29343 1.52895,0 1.52897,0 0,0.76448 0,0.76448 -1.52897,0 -1.52895,0 0,0.76449 0,0.76447 -0.76448,0 -0.76448,0 0,0.76448 0,0.76448 0.76448,0 0.76448,0 0,0.76448 0,0.76447 0.76448,0 0.76447,0 0,-1.52895 0,-1.52896 0.76449,0 0.76448,0 0,0.76448 0,0.76448 1.52895,0 1.52897,0 0,-0.76448 0,-0.76448 -0.76449,0 -0.76448,0 0,-0.76447 0,-0.76449 0.76448,0 0.76449,0 0,0.76449 0,0.76447 0.76448,0 0.76446,0 0,2.29344 0,2.29344 -0.76446,0 -0.76448,0 0,0.76448 0,0.76447 0.76448,0 0.76446,0 0,1.52897 0,1.52895 -0.76446,0 -0.76448,0 0,-1.52895 0,-1.52897 -0.76449,0 -0.76448,0 0,-1.52895 0,-1.52897 -0.76447,0 -0.76448,0 0,0.76449 0,0.76448 -1.52897,0 -1.52895,0 0,1.52895 0,1.52897 -0.76448,0 -0.76448,0 0,0.76448 0,0.76447 1.52896,0 1.52895,0 0,-0.76447 0,-0.76448 1.52897,0 1.52895,0 0,0.76448 0,0.76447 -0.76447,0 -0.76448,0 0,1.52896 0,1.52896 -0.76448,0 -0.76449,0 0,0.76448 0,0.76448 1.52897,0 1.52895,0 0,0.76449 0,0.76447 0.76448,0 0.76449,0 0,-1.52896 0,-1.52896 -0.76449,0 -0.76448,0 0,-0.76448 0,-0.76448 0.76448,0 0.76449,0 0,0.76448 0,0.76448 0.76448,0 0.76446,0 0,1.52896 0,1.52896 -0.76446,0 -0.76448,0 0,0.76448 0,0.76448 0.76448,0 0.76446,0 0,2.29343 0,2.29344 -2.29343,0 -2.29343,0 0,1.52897 0,1.52894 -5.35136,0 z m -4.58687,-1.52894 0.76448,0 0,-1.52897 0,-1.52895 -0.76448,0 -0.76449,0 0,-2.29343 0,-2.29345 0.76449,0 0.76448,0 0,-0.76447 0,-0.76449 -2.29344,0 -2.29345,0 0,0.76449 0,0.76447 0.76449,0 0.76448,0 0,2.29345 0,2.29343 0.76448,0 0.76447,0 0,1.52895 0,1.52897 0.76449,0 z m 3.82239,0 1.52896,0 0,-2.29344 0,-2.29345 -0.76448,0 -0.76448,0 0,0.76448 0,0.76449 -0.76448,0 -0.76448,0 0,1.52895 0,1.52897 1.52896,0 z m 5.35136,-3.05792 0.76448,0 0,-0.76449 0,-0.76448 0.76448,0 0.76447,0 0,0.76448 0,0.76449 0.76448,0 0.76449,0 0,-1.52897 0,-1.52895 -0.76449,0 -0.76448,0 0,-0.76448 0,-0.76448 -0.76447,0 -0.76448,0 0,0.76448 0,0.76448 -0.76448,0 -0.76449,0 0,1.52895 0,1.52897 0.76449,0 z m -4.58688,-3.05792 2.29344,0 0,-2.29343 0,-2.29345 -2.29344,0 -2.29344,0 0,2.29345 0,2.29343 2.29344,0 z m 0,-1.52896 -0.76448,0 0,-0.76447 0,-0.76449 0.76448,0 0.76448,0 0,0.76449 0,0.76447 -0.76448,0 z m -25.99229,-1.52896 0.76448,0 0,-1.52896 0,-1.52896 -0.76448,0 -0.76449,0 0,-1.52896 0,-1.52895 0.76449,0 0.76448,0 0,0.76448 0,0.76447 0.76447,0 0.76448,0 0,-0.76447 0,-0.76448 -0.76448,0 -0.76447,0 0,-0.76448 0,-0.76449 1.52895,0 1.52896,0 0,-0.76447 0,-0.76448 0.76448,0 0.76448,0 0,-0.76448 0,-0.76449 0.76448,0 0.76448,0 0,-0.76447 0,-0.76448 -0.76448,0 -0.76448,0 0,0.76448 0,0.76447 -0.76448,0 -0.76448,0 0,0.76449 0,0.76448 -1.52896,0 -1.52895,0 0,-0.76448 0,-0.76449 0.76447,0 0.76448,0 0,-0.76447 0,-0.76448 -0.76448,0 -0.76447,0 0,-0.76448 0,-0.76448 1.52895,0 1.52896,0 0,-0.76447 0,-0.76449 -0.76447,0 -0.76449,0 0,-1.52896 0,-1.52895 0.76449,0 0.76447,0 0,0.76448 0,0.76447 1.52896,0 1.52896,0 0,0.76448 0,0.76448 -0.76448,0 -0.76448,0 0,0.76449 0,0.76447 1.52896,0 1.52896,0 0,-0.76447 0,-0.76449 1.52895,0 1.52896,0 0,1.52896 0,1.52896 1.52896,0 1.52895,0 0,-1.52896 0,-1.52896 0.76449,0 0.76448,0 0,0.76449 0,0.76447 0.76448,0 0.76447,0 0,0.76448 0,0.76448 -0.76447,0 -0.76448,0 0,0.76448 0,0.76447 -0.76448,0 -0.76449,0 0,0.76449 0,0.76448 0.76449,0 0.76448,0 0,-0.76448 0,-0.76449 0.76448,0 0.76447,0 0,0.76449 0,0.76448 1.52897,0 1.52895,0 0,-0.76448 0,-0.76449 -1.52895,0 -1.52897,0 0,-0.76447 0,-0.76448 1.52897,0 1.52895,0 0,-1.52896 0,-1.52896 1.52897,0 1.52895,0 0,0.76449 0,0.76447 -0.76448,0 -0.76447,0 0,1.52896 0,1.52895 1.52895,0 1.52896,0 0,0.76449 0,0.76448 1.52896,0 1.52896,0 0,-0.76448 0,-0.76449 -0.76448,0 -0.76448,0 0,-0.76447 0,-0.76448 -1.52896,0 -1.52896,0 0,-0.76448 0,-0.76448 0.76448,0 0.76448,0 0,-0.76447 0,-0.76449 -0.76448,0 -0.76448,0 0,-0.76448 0,-0.76448 1.52896,0 1.52896,0 0,-0.76447 0,-0.76448 -1.52896,0 -1.52896,0 0,0.76448 0,0.76447 -1.52895,0 -1.52897,0 0,-1.52895 0,-1.52896 0.76449,0 0.76448,0 0,-0.76448 0,-0.76448 -3.05792,0 -3.05792,0 0,-0.76448 0,-0.76448 -0.76448,0 -0.76449,0 0,-1.52896 0,-1.52896 0.76449,0 0.76448,0 0,-0.76447 0,-0.76449 -1.52897,0 -1.52895,0 0,-1.52896 0,-1.52895 -0.76448,0 -0.76448,0 0,2.29344 0,2.29343 0.76448,0 0.76448,0 0,0.76449 0,0.76447 -1.52896,0 -1.52896,0 0,2.29344 0,2.29344 -0.76448,0 -0.76447,0 0,-2.29344 0,-2.29344 -1.52896,0 -1.52896,0 0,0.76448 0,0.76448 -0.76448,0 -0.76448,0 0,-0.76448 0,-0.76448 -0.76447,0 -0.76449,0 0,2.29344 0,2.29344 -0.76448,0 -0.76447,0 0,-0.76448 0,-0.76448 -2.29344,0 -2.29345,0 0,0.76448 0,0.76448 -0.76446,0 -0.76449,0 0,0.76448 0,0.76448 0.76449,0 0.76446,0 0,0.76448 0,0.76447 1.52897,0 1.52895,0 0,0.76448 0,0.76448 -1.52895,0 -1.52897,0 0,0.76449 0,0.76447 1.52897,0 1.52895,0 0,0.76448 0,0.76448 -0.76447,0 -0.76448,0 0,0.76448 0,0.76447 0.76448,0 0.76447,0 0,2.29345 0,2.29344 -0.76447,0 -0.76448,0 0,0.76448 0,0.76447 -1.52897,0 -1.52895,0 0,0.76449 0,0.76447 2.29343,0 2.29344,0 0,1.52896 0,1.52896 0.76449,0 z m 0,-13.76063 -0.76449,0 0,-0.76447 0,-0.76449 0.76449,0 0.76448,0 0,0.76449 0,0.76447 -0.76448,0 z m 13.76063,-1.52896 -0.76449,0 0,-0.76448 0,-0.76448 -0.76448,0 -0.76448,0 0,-3.05791 0,-3.05792 0.76448,0 0.76448,0 0,3.05792 0,3.05791 0.76449,0 0.76446,0 0,-0.76447 0,-0.76448 0.76449,0 0.76448,0 0,0.76448 0,0.76447 -0.76448,0 -0.76449,0 0,0.76448 0,0.76448 -0.76446,0 z m 6.11583,0 -0.76448,0 0,-0.76448 0,-0.76448 -0.76448,0 -0.76449,0 0,-0.76447 0,-0.76448 0.76449,0 0.76448,0 0,0.76448 0,0.76447 0.76448,0 0.76447,0 0,0.76448 0,0.76448 -0.76447,0 z m -10.70272,-1.52896 -0.76447,0 0,-0.76447 0,-0.76448 0.76447,0 0.76448,0 0,0.76448 0,0.76447 -0.76448,0 z m -11.46718,-1.52895 -1.52897,0 0,-0.76448 0,-0.76448 1.52897,0 1.52895,0 0,0.76448 0,0.76448 -1.52895,0 z m 8.40927,-1.52896 -0.76448,0 0,-1.52896 0,-1.52896 0.76448,0 0.76448,0 0,1.52896 0,1.52896 -0.76448,0 z m 9.17375,0 -0.76449,0 0,-0.76448 0,-0.76448 0.76449,0 0.76448,0 0,0.76448 0,0.76448 -0.76448,0 z m 4.58688,18.3475 2.29344,0 0,-1.52896 0,-1.52896 -1.52897,0 -1.52895,0 0,-0.76447 0,-0.76448 2.29344,0 2.29343,0 0,0.76448 0,0.76447 0.76448,0 0.76448,0 0,-0.76447 0,-0.76448 0.76448,0 0.76448,0 0,-0.76448 0,-0.76449 -0.76448,0 -0.76448,0 0,0.76449 0,0.76448 -0.76448,0 -0.76448,0 0,-1.52897 0,-1.52895 -0.76448,0 -0.76447,0 0,0.76448 0,0.76447 -2.29344,0 -2.29345,0 0,3.05792 0,3.05792 2.29345,0 z m -15.28959,-1.52896 0.76448,0 0,-0.76447 0,-0.76449 -0.76448,0 -0.76448,0 0,0.76449 0,0.76447 0.76448,0 z m 10.70271,-1.52896 0.76448,0 0,-1.52895 0,-1.52897 -0.76448,0 -0.76449,0 0,1.52897 0,1.52895 0.76449,0 z m -3.05792,-1.52895 0.76448,0 0,-0.76448 0,-0.76449 -0.76448,0 -0.76448,0 0,0.76449 0,0.76448 0.76448,0 z m -15.28959,-1.52897 0.76449,0 0,-0.76447 0,-0.76448 -0.76449,0 -0.76448,0 0,0.76448 0,0.76447 0.76448,0 z m -7.64478,-1.52895 0.76447,0 0,-0.76448 0,-0.76449 -0.76447,0 -0.76449,0 0,0.76449 0,0.76448 0.76449,0 z m 22.93437,0 0.76448,0 0,-0.76448 0,-0.76449 -0.76448,0 -0.76448,0 0,0.76449 0,0.76448 0.76448,0 z m -24.46333,-3.05792 0.76447,0 0,-0.76448 0,-0.76448 -0.76447,0 -0.76447,0 0,0.76448 0,0.76448 0.76447,0 z m 38.22396,-9.17375 0.76448,0 0,-0.76448 0,-0.76448 -0.76448,0 -0.76448,0 0,0.76448 0,0.76448 0.76448,0 z m 6.11584,-3.05792 0.76447,0 0,-0.76447 0,-0.76449 -0.76447,0 -0.76448,0 0,0.76449 0,0.76447 0.76448,0 z m -25.22782,-1.52896 3.05791,0 0,-0.76447 0,-0.76449 -0.76448,0 -0.76447,0 0,-0.76447 0,-0.76449 0.76447,0 0.76448,0 0,-0.76447 0,-0.76448 -0.76448,0 -0.76447,0 0,0.76448 0,0.76447 -0.76448,0 -0.76448,0 0,-0.76447 0,-0.76448 -0.76448,0 -0.76448,0 0,0.76448 0,0.76447 -0.76448,0 -0.76448,0 0,-0.76447 0,-0.76448 -0.76447,0 -0.76449,0 0,1.52895 0,1.52896 0.76449,0 0.76447,0 0,0.76449 0,0.76447 3.05792,0 z m 8.40927,-3.05792 0.76448,0 0,-0.76447 0,-0.76448 -0.76448,0 -0.76449,0 0,0.76448 0,0.76447 0.76449,0 z m -14.5251,-6.11583 1.52895,0 0,-0.76447 0,-0.76449 -1.52895,0 -1.52897,0 0,0.76449 0,0.76447 1.52897,0 z m 34.40157,45.86875 -0.76448,0 0,-0.76446 0,-0.76448 0.76448,0 0.76446,0 0,0.76448 0,0.76446 -0.76446,0 z m -25.99231,-3.05791 -0.76447,0 0,-0.76447 0,-0.76448 0.76447,0 0.76448,0 0,0.76448 0,0.76447 -0.76448,0 z m 6.11584,0 -0.76449,0 0,-0.76447 0,-0.76448 0.76449,0 0.76448,0 0,0.76448 0,0.76447 -0.76448,0 z m -3.05792,-1.52895 -0.76448,0 0,-2.29343 0,-2.29345 0.76448,0 0.76448,0 0,2.29345 0,2.29343 -0.76448,0 z m -25.2278,-7.6448 -1.52897,0 0,-0.76448 0,-0.76448 1.52897,0 1.52894,0 0,0.76448 0,0.76448 -1.52894,0 z m 0,-3.05792 -1.52897,0 0,-0.76447 0,-0.76448 1.52897,0 1.52894,0 0,0.76448 0,0.76447 -1.52894,0 z m 48.16219,-12.23167 -0.76448,0 0,-0.76447 0,-0.76448 -2.29344,0 -2.29345,0 0,-0.76448 0,-0.76448 3.05792,0 3.05791,0 0,1.52896 0,1.52895 -0.76446,0 z m -48.92668,-4.58687 -0.76448,0 0,-0.76448 0,-0.76448 0.76448,0 0.76449,0 0,-0.76448 0,-0.76448 -0.76449,0 -0.76448,0 0,-1.52896 0,-1.52896 0.76448,0 0.76449,0 0,1.52896 0,1.52896 0.76447,0 0.76447,0 0,-1.52896 0,-1.52896 0.76449,0 0.76447,0 0,2.29345 0,2.29343 -1.52896,0 -1.52894,0 0,0.76448 0,0.76448 -0.76449,0 z m 4.58687,-7.6448 -5.35135,0 0,-5.35135 0,-5.35135 5.35135,0 5.35135,0 0,5.35135 0,5.35135 -5.35135,0 z m 0,-1.52895 3.8224,0 0,-3.8224 0,-3.8224 -3.8224,0 -3.82238,0 0,3.8224 0,3.8224 3.82238,0 z m 0,-1.52896 -2.29344,0 0,-2.29344 0,-2.29344 2.29344,0 2.29344,0 0,2.29344 0,2.29344 -2.29344,0 z m 39.75293,3.05791 -5.35136,0 0,-5.35135 0,-5.35135 5.35136,0 5.35134,0 0,5.35135 0,5.35135 -5.35134,0 z m 0,-1.52895 3.8224,0 0,-3.8224 0,-3.8224 -3.8224,0 -3.8224,0 0,3.8224 0,3.8224 3.8224,0 z m 0,-1.52896 -2.29344,0 0,-2.29344 0,-2.29344 2.29344,0 2.29343,0 0,2.29344 0,2.29344 -2.29343,0 z m -18.34751,-3.05792 -0.76448,0 0,-0.76447 0,-0.76449 -0.76447,0 -0.76449,0 0,-1.52896 0,-1.52895 2.29344,0 2.29343,0 0,0.76448 0,0.76447 -1.52895,0 -1.52896,0 0,0.76448 0,0.76448 0.76448,0 0.76448,0 0,0.76449 0,0.76447 -0.76448,0 z m 10.70271,-1.52896 -0.76447,0 0,-0.76448 0,-0.76448 0.76447,0 0.76448,0 0,0.76448 0,0.76448 -0.76448,0 z"
           style="fill:#7e5d5d;fill-opacity:1" /><path
           style="fill:#7e5d5d;fill-opacity:1"
           d="m 35.282123,347.899 -5.35135,0 0,-5.35135 0,-5.35135 5.35135,0 5.35135,0 0,5.35135 0,5.35135 -5.35135,0 z m 0,-1.52894 3.8224,0 0,-3.82241 0,-3.82239 -3.8224,0 -3.82238,0 0,3.82239 0,3.82241 3.82238,0 z m 0,-1.52897 -2.29344,0 0,-2.29344 0,-2.29343 2.29344,0 2.29344,0 0,2.29343 0,2.29344 -2.29344,0 z m 7.6448,3.05791 -0.76448,0 0,-0.76446 0,-0.76448 0.76448,0 0.76447,0 0,0.76448 0,0.76446 -0.76447,0 z m 3.82239,0 -1.52895,0 0,-0.76446 0,-0.76448 1.52895,0 1.52896,0 0,-0.76449 0,-0.76448 0.76448,0 0.76448,0 0,-0.76447 0,-0.76448 0.76448,0 0.76448,0 0,1.52895 0,1.52897 1.52896,0 1.52895,0 0,0.76448 0,0.76446 -1.52895,0 -1.52896,0 0,-0.76446 0,-0.76448 -1.52896,0 -1.52896,0 0,0.76448 0,0.76446 -1.52896,0 z m 12.99615,0 -0.76449,0 0,-0.76446 0,-0.76448 0.76449,0 0.76448,0 0,0.76448 0,0.76446 -0.76448,0 z m 10.702706,0 -5.35136,0 0,-0.76446 0,-0.76448 -0.76447,0 -0.76448,0 0,-0.76449 0,-0.76448 -0.76448,0 -0.764486,0 0,-2.29344 0,-2.29343 -0.76447,0 -0.76448,0 0,0.76449 0,0.76446 -0.76448,0 -0.76449,0 0,-0.76446 0,-0.76449 0.76449,0 0.76448,0 0,-0.76448 0,-0.76448 -0.76448,0 -0.76449,0 0,-1.52896 0,-1.52896 0.76449,0 0.76448,0 0,-0.76448 0,-0.76448 -1.52897,0 -1.52895,0 0,-0.76447 0,-0.76449 -0.76448,0 -0.76448,0 0,1.52896 0,1.52896 0.76448,0 0.76448,0 0,0.76448 0,0.76448 -0.76448,0 -0.76448,0 0,-0.76448 0,-0.76448 -0.76447,0 -0.76449,0 0,1.52896 0,1.52896 -0.76448,0 -0.76447,0 0,-1.52896 0,-1.52896 0.76447,0 0.76448,0 0,-0.76448 0,-0.76448 -0.76448,0 -0.76447,0 0,-0.76447 0,-0.76449 0.76447,0 0.76448,0 0,-2.29343 0,-2.29344 -2.29343,0 -2.29344,0 0,1.52895 0,1.52897 0.76448,0 0.76448,0 0,-0.76448 0,-0.76449 0.76448,0 0.76448,0 0,0.76449 0,0.76448 -0.76448,0 -0.76448,0 0,3.05791 0,3.05792 -1.52896,0 -1.52896,0 0,-1.52896 0,-1.52896 -0.76447,0 -0.76449,0 0,3.05792 0,3.05792 1.52896,0 1.52896,0 0,-0.76448 0,-0.76448 0.76448,0 0.76448,0 0,0.76448 0,0.76448 0.76448,0 0.76448,0 0,0.76449 0,0.76446 -0.76448,0 -0.76448,0 0,-0.76446 0,-0.76449 -0.76448,0 -0.76448,0 0,0.76449 0,0.76446 -1.52896,0 -1.52896,0 0,0.76448 0,0.76449 -0.76448,0 -0.76447,0 0,0.76448 0,0.76447 -1.52897,0 -1.52895,0 0,-0.76447 0,-0.76448 1.52895,0 1.52897,0 0,-0.76449 0,-0.76448 0.76447,0 0.76448,0 0,-0.76446 0,-0.76449 -0.76448,0 -0.76447,0 0,-0.76448 0,-0.76448 -1.52897,0 -1.52895,0 0,-1.52896 0,-1.52896 -1.52897,0 -1.52895,0 0,-0.76448 0,-0.76448 -2.29343,0 -2.29345,0 0,-1.52896 0,-1.52895 3.05792,0 3.05791,0 0,-0.76448 0,-0.76449 -0.76446,0 -0.76449,0 0,-0.76447 0,-0.76448 0.76449,0 0.76446,0 0,-0.76448 0,-0.76449 -1.52895,0 -1.52896,0 0,0.76449 0,0.76448 -1.52896,0 -1.52896,0 0,0.76448 0,0.76447 -2.29343,0 -2.29344,0 0,-1.52895 0,-1.52897 0.76448,0 0.76449,0 0,-0.76447 0,-0.76448 -0.76449,0 -0.76448,0 0,-2.29343 0,-2.29345 0.76448,0 0.76449,0 0,-1.52895 0,-1.52896 0.76447,0 0.76447,0 0,2.29344 0,2.29343 1.52896,0 1.52896,0 0,0.76449 0,0.76447 -0.76448,0 -0.76448,0 0,0.76448 0,0.76448 3.05792,0 3.05791,0 0,-0.76448 0,-0.76448 -1.52895,0 -1.52896,0 0,-0.76447 0,-0.76449 1.52896,0 1.52895,0 0,-0.76448 0,-0.76448 -0.76446,0 -0.76449,0 0,-0.76447 0,-0.76448 -0.76449,0 -0.76447,0 0,0.76448 0,0.76447 -0.76447,0 -0.76449,0 0,-0.76447 0,-0.76448 -0.76448,0 -0.76448,0 0,-0.76448 0,-0.76448 0.76448,0 0.76448,0 0,-0.76448 0,-0.76448 2.29343,0 2.29344,0 0,-0.76448 0,-0.76448 -0.76446,0 -0.76449,0 0,-0.76448 0,-0.76448 -0.76449,0 -0.76447,0 0,0.76448 0,0.76448 -0.76447,0 -0.76449,0 0,-1.52896 0,-1.52896 1.52896,0 1.52896,0 0,-0.76447 0,-0.76449 1.52895,0 1.52897,0 0,0.76449 0,0.76447 -1.52897,0 -1.52895,0 0,0.76449 0,0.76447 0.76449,0 0.76446,0 0,0.76448 0,0.76448 1.52897,0 1.52895,0 0,-1.52896 0,-1.52896 0.76449,0 0.76448,0 0,-2.29343 0,-2.29344 0.76447,0 0.76448,0 0,-1.52896 0,-1.52896 -0.76448,0 -0.76447,0 0,0.76448 0,0.76448 -0.76448,0 -0.76449,0 0,1.52896 0,1.52895 -0.76447,0 -0.76448,0 0,-1.52895 0,-1.52896 0.76448,0 0.76447,0 0,-1.52896 0,-1.52896 -0.76447,0 -0.76448,0 0,-0.76447 0,-0.76449 0.76448,0 0.76447,0 0,-0.76448 0,-0.76448 -0.76447,0 -0.76448,0 0,-0.76447 0,-0.76448 0.76448,0 0.76447,0 0,0.76448 0,0.76447 0.76449,0 0.76448,0 0,-0.76447 0,-0.76448 1.52895,0 1.52896,0 0,0.76448 0,0.76447 0.76448,0 0.76448,0 0,-0.76447 0,-0.76448 1.52896,0 1.52896,0 0,0.76448 0,0.76447 -1.52896,0 -1.52896,0 0,0.76448 0,0.76448 0.76448,0 0.76448,0 0,0.76449 0,0.76447 -1.52896,0 -1.52896,0 0,2.29344 0,2.29344 0.76448,0 0.76448,0 0,-0.76449 0,-0.76447 1.52896,0 1.52896,0 0,-1.52896 0,-1.52896 0.76447,0 0.76448,0 0,2.29344 0,2.29344 0.76449,0 0.76447,0 0,-0.76449 0,-0.76447 1.52896,0 1.52895,0 0,-1.52896 0,-1.52896 0.76449,0 0.76448,0 0,2.29344 0,2.29344 0.76448,0 0.76447,0 0,-0.76449 0,-0.76447 1.528966,0 1.52895,0 0,-1.52896 0,-1.52896 -0.76447,0 -0.76448,0 0,0.76448 0,0.76448 -0.76448,0 -0.764486,0 0,-1.52896 0,-1.52896 -0.76447,0 -0.76448,0 0,-0.76448 0,-0.76448 0.76448,0 0.76447,0 0,0.76448 0,0.76448 0.764486,0 0.76448,0 0,-1.52896 0,-1.52895 0.76448,0 0.76447,0 0,2.29343 0,2.29344 1.52897,0 1.52895,0 0,0.76448 0,0.76448 -0.76448,0 -0.76447,0 0,1.52896 0,1.52896 0.76447,0 0.76448,0 0,0.76448 0,0.76447 -0.76448,0 -0.76447,0 0,-0.76447 0,-0.76448 -0.76448,0 -0.76449,0 0,0.76448 0,0.76447 -0.76447,0 -0.76448,0 0,-0.76447 0,-0.76448 -0.76448,0 -0.764486,0 0,3.05791 0,3.05792 0.764486,0 0.76448,0 0,0.76448 0,0.76448 0.76448,0 0.76447,0 0,-2.29343 0,-2.29345 1.52897,0 1.52895,0 0,2.29345 0,2.29343 0.76448,0 0.76448,0 0,-1.52896 0,-1.52896 0.76448,0 0.76448,0 0,-0.76447 0,-0.76449 0.76448,0 0.76448,0 0,0.76449 0,0.76447 -0.76448,0 -0.76448,0 0,1.52896 0,1.52896 1.52896,0 1.52895,0 0,-1.52896 0,-1.52896 0.76449,0 0.76448,0 0,-0.76447 0,-0.76449 0.76448,0 0.76447,0 0,0.76449 0,0.76447 0.76448,0 0.76449,0 0,-0.76447 0,-0.76449 0.76448,0 0.76446,0 0,3.05792 0,3.05792 -1.52894,0 -1.52897,0 0,-0.76448 0,-0.76448 -0.76447,0 -0.76448,0 0,0.76448 0,0.76448 -1.52897,0 -1.52895,0 0,2.29344 0,2.29343 1.52895,0 1.52897,0 0,0.76448 0,0.76448 -1.52897,0 -1.52895,0 0,0.76449 0,0.76447 -0.76448,0 -0.76448,0 0,0.76448 0,0.76448 0.76448,0 0.76448,0 0,0.76448 0,0.76447 0.76448,0 0.76447,0 0,-1.52895 0,-1.52896 0.76449,0 0.76448,0 0,0.76448 0,0.76448 1.52895,0 1.52897,0 0,-0.76448 0,-0.76448 -0.76449,0 -0.76448,0 0,-0.76447 0,-0.76449 0.76448,0 0.76449,0 0,0.76449 0,0.76447 0.76448,0 0.76446,0 0,2.29344 0,2.29344 -0.76446,0 -0.76448,0 0,0.76448 0,0.76447 0.76448,0 0.76446,0 0,1.52897 0,1.52895 -0.76446,0 -0.76448,0 0,-1.52895 0,-1.52897 -0.76449,0 -0.76448,0 0,-1.52895 0,-1.52897 -0.76447,0 -0.76448,0 0,0.76449 0,0.76448 -1.52897,0 -1.52895,0 0,1.52895 0,1.52897 -0.76448,0 -0.76448,0 0,0.76448 0,0.76447 1.52896,0 1.52895,0 0,-0.76447 0,-0.76448 1.52897,0 1.52895,0 0,0.76448 0,0.76447 -0.76447,0 -0.76448,0 0,1.52896 0,1.52896 -0.76448,0 -0.76449,0 0,0.76448 0,0.76448 1.52897,0 1.52895,0 0,0.76449 0,0.76447 0.76448,0 0.76449,0 0,-1.52896 0,-1.52896 -0.76449,0 -0.76448,0 0,-0.76448 0,-0.76448 0.76448,0 0.76449,0 0,0.76448 0,0.76448 0.76448,0 0.76446,0 0,1.52896 0,1.52896 -0.76446,0 -0.76448,0 0,0.76448 0,0.76448 0.76448,0 0.76446,0 0,2.29343 0,2.29344 -2.29343,0 -2.29343,0 0,1.52897 0,1.52894 -5.35136,0 z m -4.58687,-1.52894 0.76448,0 0,-1.52897 0,-1.52895 -0.76448,0 -0.76449,0 0,-2.29343 0,-2.29345 0.76449,0 0.76448,0 0,-0.76447 0,-0.76449 -2.29344,0 -2.293446,0 0,0.76449 0,0.76447 0.764486,0 0.76448,0 0,2.29345 0,2.29343 0.76448,0 0.76447,0 0,1.52895 0,1.52897 0.76449,0 z m 3.82239,0 1.52896,0 0,-2.29344 0,-2.29345 -0.76448,0 -0.76448,0 0,0.76448 0,0.76449 -0.76448,0 -0.76448,0 0,1.52895 0,1.52897 1.52896,0 z m 5.35136,-3.05792 0.76448,0 0,-0.76449 0,-0.76448 0.76448,0 0.76447,0 0,0.76448 0,0.76449 0.76448,0 0.76449,0 0,-1.52897 0,-1.52895 -0.76449,0 -0.76448,0 0,-0.76448 0,-0.76448 -0.76447,0 -0.76448,0 0,0.76448 0,0.76448 -0.76448,0 -0.76449,0 0,1.52895 0,1.52897 0.76449,0 z m -4.58688,-3.05792 2.29344,0 0,-2.29343 0,-2.29345 -2.29344,0 -2.29344,0 0,2.29345 0,2.29343 2.29344,0 z m 0,-1.52896 -0.76448,0 0,-0.76447 0,-0.76449 0.76448,0 0.76448,0 0,0.76449 0,0.76447 -0.76448,0 z m -25.992286,-1.52896 0.76448,0 0,-1.52896 0,-1.52896 -0.76448,0 -0.76449,0 0,-1.52896 0,-1.52895 0.76449,0 0.76448,0 0,0.76448 0,0.76447 0.76447,0 0.76448,0 0,-0.76447 0,-0.76448 -0.76448,0 -0.76447,0 0,-0.76448 0,-0.76449 1.52895,0 1.52896,0 0,-0.76447 0,-0.76448 0.76448,0 0.76448,0 0,-0.76448 0,-0.76449 0.76448,0 0.76448,0 0,-0.76447 0,-0.76448 -0.76448,0 -0.76448,0 0,0.76448 0,0.76447 -0.76448,0 -0.76448,0 0,0.76449 0,0.76448 -1.52896,0 -1.52895,0 0,-0.76448 0,-0.76449 0.76447,0 0.76448,0 0,-0.76447 0,-0.76448 -0.76448,0 -0.76447,0 0,-0.76448 0,-0.76448 1.52895,0 1.52896,0 0,-0.76447 0,-0.76449 -0.76447,0 -0.76449,0 0,-1.52896 0,-1.52895 0.76449,0 0.76447,0 0,0.76448 0,0.76447 1.52896,0 1.52896,0 0,0.76448 0,0.76448 -0.76448,0 -0.76448,0 0,0.76449 0,0.76447 1.52896,0 1.52896,0 0,-0.76447 0,-0.76449 1.52895,0 1.52896,0 0,1.52896 0,1.52896 1.52896,0 1.52895,0 0,-1.52896 0,-1.52896 0.76449,0 0.76448,0 0,0.76449 0,0.76447 0.76448,0 0.76447,0 0,0.76448 0,0.76448 -0.76447,0 -0.76448,0 0,0.76448 0,0.76447 -0.76448,0 -0.76449,0 0,0.76449 0,0.76448 0.76449,0 0.76448,0 0,-0.76448 0,-0.76449 0.76448,0 0.76447,0 0,0.76449 0,0.76448 1.528966,0 1.52895,0 0,-0.76448 0,-0.76449 -1.52895,0 -1.528966,0 0,-0.76447 0,-0.76448 1.528966,0 1.52895,0 0,-1.52896 0,-1.52896 1.52897,0 1.52895,0 0,0.76449 0,0.76447 -0.76448,0 -0.76447,0 0,1.52896 0,1.52895 1.52895,0 1.52896,0 0,0.76449 0,0.76448 1.52896,0 1.52896,0 0,-0.76448 0,-0.76449 -0.76448,0 -0.76448,0 0,-0.76447 0,-0.76448 -1.52896,0 -1.52896,0 0,-0.76448 0,-0.76448 0.76448,0 0.76448,0 0,-0.76447 0,-0.76449 -0.76448,0 -0.76448,0 0,-0.76448 0,-0.76448 1.52896,0 1.52896,0 0,-0.76447 0,-0.76448 -1.52896,0 -1.52896,0 0,0.76448 0,0.76447 -1.52895,0 -1.52897,0 0,-1.52895 0,-1.52896 0.76449,0 0.76448,0 0,-0.76448 0,-0.76448 -3.05792,0 -3.057916,0 0,-0.76448 0,-0.76448 -0.76448,0 -0.76449,0 0,-1.52896 0,-1.52896 0.76449,0 0.76448,0 0,-0.76447 0,-0.76449 -1.52897,0 -1.52895,0 0,-1.52896 0,-1.52895 -0.76448,0 -0.76448,0 0,2.29344 0,2.29343 0.76448,0 0.76448,0 0,0.76449 0,0.76447 -1.52896,0 -1.52896,0 0,2.29344 0,2.29344 -0.76448,0 -0.76447,0 0,-2.29344 0,-2.29344 -1.52896,0 -1.52896,0 0,0.76448 0,0.76448 -0.76448,0 -0.76448,0 0,-0.76448 0,-0.76448 -0.76447,0 -0.76449,0 0,2.29344 0,2.29344 -0.76448,0 -0.76447,0 0,-0.76448 0,-0.76448 -2.29344,0 -2.29345,0 0,0.76448 0,0.76448 -0.76446,0 -0.76449,0 0,0.76448 0,0.76448 0.76449,0 0.76446,0 0,0.76448 0,0.76447 1.52897,0 1.52895,0 0,0.76448 0,0.76448 -1.52895,0 -1.52897,0 0,0.76449 0,0.76447 1.52897,0 1.52895,0 0,0.76448 0,0.76448 -0.76447,0 -0.76448,0 0,0.76448 0,0.76447 0.76448,0 0.76447,0 0,2.29345 0,2.29344 -0.76447,0 -0.76448,0 0,0.76448 0,0.76447 -1.52897,0 -1.52895,0 0,0.76449 0,0.76447 2.29343,0 2.29344,0 0,1.52896 0,1.52896 0.76449,0 z m 0,-13.76063 -0.76449,0 0,-0.76447 0,-0.76449 0.76449,0 0.76448,0 0,0.76449 0,0.76447 -0.76448,0 z m 13.76063,-1.52896 -0.76449,0 0,-0.76448 0,-0.76448 -0.76448,0 -0.76448,0 0,-3.05791 0,-3.05792 0.76448,0 0.76448,0 0,3.05792 0,3.05791 0.76449,0 0.76446,0 0,-0.76447 0,-0.76448 0.76449,0 0.76448,0 0,0.76448 0,0.76447 -0.76448,0 -0.76449,0 0,0.76448 0,0.76448 -0.76446,0 z m 6.115826,0 -0.76448,0 0,-0.76448 0,-0.76448 -0.76448,0 -0.764486,0 0,-0.76447 0,-0.76448 0.764486,0 0.76448,0 0,0.76448 0,0.76447 0.76448,0 0.76447,0 0,0.76448 0,0.76448 -0.76447,0 z m -10.702716,-1.52896 -0.76447,0 0,-0.76447 0,-0.76448 0.76447,0 0.76448,0 0,0.76448 0,0.76447 -0.76448,0 z m -11.46718,-1.52895 -1.52897,0 0,-0.76448 0,-0.76448 1.52897,0 1.52895,0 0,0.76448 0,0.76448 -1.52895,0 z m 8.40927,-1.52896 -0.76448,0 0,-1.52896 0,-1.52896 0.76448,0 0.76448,0 0,1.52896 0,1.52896 -0.76448,0 z m 9.17375,0 -0.76449,0 0,-0.76448 0,-0.76448 0.76449,0 0.76448,0 0,0.76448 0,0.76448 -0.76448,0 z m 4.586876,18.3475 2.29344,0 0,-1.52896 0,-1.52896 -1.52897,0 -1.52895,0 0,-0.76447 0,-0.76448 2.29344,0 2.29343,0 0,0.76448 0,0.76447 0.76448,0 0.76448,0 0,-0.76447 0,-0.76448 0.76448,0 0.76448,0 0,-0.76448 0,-0.76449 -0.76448,0 -0.76448,0 0,0.76449 0,0.76448 -0.76448,0 -0.76448,0 0,-1.52897 0,-1.52895 -0.76448,0 -0.76447,0 0,0.76448 0,0.76447 -2.29344,0 -2.293446,0 0,3.05792 0,3.05792 2.293446,0 z m -15.289586,-1.52896 0.76448,0 0,-0.76447 0,-0.76449 -0.76448,0 -0.76448,0 0,0.76449 0,0.76447 0.76448,0 z m 10.70271,-1.52896 0.76448,0 0,-1.52895 0,-1.52897 -0.76448,0 -0.76449,0 0,1.52897 0,1.52895 0.76449,0 z m -3.05792,-1.52895 0.76448,0 0,-0.76448 0,-0.76449 -0.76448,0 -0.76448,0 0,0.76449 0,0.76448 0.76448,0 z m -15.28959,-1.52897 0.76449,0 0,-0.76447 0,-0.76448 -0.76449,0 -0.76448,0 0,0.76448 0,0.76447 0.76448,0 z m -7.64478,-1.52895 0.76447,0 0,-0.76448 0,-0.76449 -0.76447,0 -0.76449,0 0,0.76449 0,0.76448 0.76449,0 z m 22.93437,0 0.76448,0 0,-0.76448 0,-0.76449 -0.76448,0 -0.76448,0 0,0.76449 0,0.76448 0.76448,0 z m -24.46333,-3.05792 0.76447,0 0,-0.76448 0,-0.76448 -0.76447,0 -0.76447,0 0,0.76448 0,0.76448 0.76447,0 z m 38.223956,-9.17375 0.76448,0 0,-0.76448 0,-0.76448 -0.76448,0 -0.76448,0 0,0.76448 0,0.76448 0.76448,0 z m 6.11584,-3.05792 0.76447,0 0,-0.76447 0,-0.76449 -0.76447,0 -0.76448,0 0,0.76449 0,0.76447 0.76448,0 z m -25.227816,-1.52896 3.05791,0 0,-0.76447 0,-0.76449 -0.76448,0 -0.76447,0 0,-0.76447 0,-0.76449 0.76447,0 0.76448,0 0,-0.76447 0,-0.76448 -0.76448,0 -0.76447,0 0,0.76448 0,0.76447 -0.76448,0 -0.76448,0 0,-0.76447 0,-0.76448 -0.76448,0 -0.76448,0 0,0.76448 0,0.76447 -0.76448,0 -0.76448,0 0,-0.76447 0,-0.76448 -0.76447,0 -0.76449,0 0,1.52895 0,1.52896 0.76449,0 0.76447,0 0,0.76449 0,0.76447 3.05792,0 z m 8.40927,-3.05792 0.76448,0 0,-0.76447 0,-0.76448 -0.76448,0 -0.76449,0 0,0.76448 0,0.76447 0.76449,0 z m -14.5251,-6.11583 1.52895,0 0,-0.76447 0,-0.76449 -1.52895,0 -1.52897,0 0,0.76449 0,0.76447 1.52897,0 z m 34.401566,45.86875 -0.76448,0 0,-0.76446 0,-0.76448 0.76448,0 0.76446,0 0,0.76448 0,0.76446 -0.76446,0 z m -25.992306,-3.05791 -0.76447,0 0,-0.76447 0,-0.76448 0.76447,0 0.76448,0 0,0.76448 0,0.76447 -0.76448,0 z m 6.11584,0 -0.76449,0 0,-0.76447 0,-0.76448 0.76449,0 0.76448,0 0,0.76448 0,0.76447 -0.76448,0 z m -3.05792,-1.52895 -0.76448,0 0,-2.29343 0,-2.29345 0.76448,0 0.76448,0 0,2.29345 0,2.29343 -0.76448,0 z m -25.2278,-7.6448 -1.52897,0 0,-0.76448 0,-0.76448 1.52897,0 1.52894,0 0,0.76448 0,0.76448 -1.52894,0 z m 0,-3.05792 -1.52897,0 0,-0.76447 0,-0.76448 1.52897,0 1.52894,0 0,0.76448 0,0.76447 -1.52894,0 z m 48.162186,-12.23167 -0.76448,0 0,-0.76447 0,-0.76448 -2.29344,0 -2.29345,0 0,-0.76448 0,-0.76448 3.05792,0 3.05791,0 0,1.52896 0,1.52895 -0.76446,0 z m -48.926676,-4.58687 -0.76448,0 0,-0.76448 0,-0.76448 0.76448,0 0.76449,0 0,-0.76448 0,-0.76448 -0.76449,0 -0.76448,0 0,-1.52896 0,-1.52896 0.76448,0 0.76449,0 0,1.52896 0,1.52896 0.76447,0 0.76447,0 0,-1.52896 0,-1.52896 0.76449,0 0.76447,0 0,2.29345 0,2.29343 -1.52896,0 -1.52894,0 0,0.76448 0,0.76448 -0.76449,0 z m 4.58687,-7.6448 -5.35135,0 0,-5.35135 0,-5.35135 5.35135,0 5.35135,0 0,5.35135 0,5.35135 -5.35135,0 z m 0,-1.52895 3.8224,0 0,-3.8224 0,-3.8224 -3.8224,0 -3.82238,0 0,3.8224 0,3.8224 3.82238,0 z m 0,-1.52896 -2.29344,0 0,-2.29344 0,-2.29344 2.29344,0 2.29344,0 0,2.29344 0,2.29344 -2.29344,0 z m 39.752926,3.05791 -5.35136,0 0,-5.35135 0,-5.35135 5.35136,0 5.35134,0 0,5.35135 0,5.35135 -5.35134,0 z m 0,-1.52895 3.8224,0 0,-3.8224 0,-3.8224 -3.8224,0 -3.8224,0 0,3.8224 0,3.8224 3.8224,0 z m 0,-1.52896 -2.29344,0 0,-2.29344 0,-2.29344 2.29344,0 2.29343,0 0,2.29344 0,2.29344 -2.29343,0 z m -18.347506,-3.05792 -0.76448,0 0,-0.76447 0,-0.76449 -0.76447,0 -0.76449,0 0,-1.52896 0,-1.52895 2.29344,0 2.29343,0 0,0.76448 0,0.76447 -1.52895,0 -1.52896,0 0,0.76448 0,0.76448 0.76448,0 0.76448,0 0,0.76449 0,0.76447 -0.76448,0 z m 10.702706,-1.52896 -0.76447,0 0,-0.76448 0,-0.76448 0.76447,0 0.76448,0 0,0.76448 0,0.76448 -0.76448,0 z"
           id="path3398"
           inkscape:connector-curvature="0"
           clip-path="url(#clipPath3402)"
           transform="translate(10.564735,-18.475134)" /><use
           x="0"
           y="0"
           xlink:href="#path3398"
           id="use3406"
           transform="translate(-52.065794,0.00795863)"
           width="64"
           height="64"
           style="fill:#7e5d5d;fill-opacity:1" /><use
           x="0"
           y="0"
           xlink:href="#use3406"
           id="use3408"
           transform="translate(-0.062427,-81.12522)"
           width="64"
           height="64"
           style="fill:#7e5d5d;fill-opacity:1" /><use
           x="0"
           y="0"
           xlink:href="#path3398"
           id="use3410"
           transform="translate(-0.03736658,-81.117267)"
           width="64"
           height="64"
           style="fill:#7e5d5d;fill-opacity:1" /><use
           x="0"
           y="0"
           xlink:href="#path3398"
           id="use3412"
           transform="matrix(0,1,-1,0,385.82256,198.00452)"
           width="64"
           height="64"
           style="fill:#7e5d5d;fill-opacity:1" /><use
           x="0"
           y="0"
           xlink:href="#path3398"
           id="use3414"
           transform="matrix(0,-1,1,0,-303.90957,329.45117)"
           width="64"
           height="64"
           style="fill:#7e5d5d;fill-opacity:1" /></g></g><g
       id="g5469"><rect
         style="fill:#399cd7;fill-opacity:1;fill-rule:evenodd"
         id="use3157"
         width="119.05511"
         height="164.40945"
         x="65.196854"
         y="-164.40944"
         transform="scale(1,-1)" /><rect
         transform="scale(1,-1)"
         y="-164.40944"
         x="0"
         height="164.40945"
         width="63.779526"
         id="rect3142"
         style="fill:#399cd7;fill-opacity:1;fill-rule:evenodd" /><use
         height="205.51125"
         width="311.81"
         transform="translate(185.66929,0)"
         id="use3155"
         xlink:href="#rect3142"
         y="0"
         x="0" /><rect
         transform="matrix(0.8,0,0,-0.8,0,164.40898)"
         y="59.923401"
         x="164.10684"
         height="62.109882"
         width="50.143761"
         id="rect3159"
         style="fill:#ffffff;fill-opacity:1;fill-rule:evenodd" /><path
         transform="matrix(0.8,0,0,-0.8,-1.1396309,165.77654)"
         d="m 158.4087,92.68779 a 30.485126,30.485126 0 1 1 -60.970258,0 30.485126,30.485126 0 1 1 60.970258,0 z"
         sodipodi:ry="30.485126"
         sodipodi:rx="30.485126"
         sodipodi:cy="92.68779"
         sodipodi:cx="127.92357"
         id="path3161"
         style="fill:#ffffff;fill-opacity:1;fill-rule:evenodd"
         sodipodi:type="arc" /><use
         height="205.51125"
         width="311.81"
         transform="matrix(2.3297967,0,0,2.3297967,209.52965,-245.57713)"
         id="use3140"
         xlink:href="#g5034"
         y="0"
         x="0" /><rect
         style="opacity:0.21777781;fill:url(#pattern5444);fill-opacity:1;fill-rule:evenodd"
         id="use5420"
         width="63.779526"
         height="164.40945"
         x="185.6693"
         y="-164.40944"
         transform="scale(1,-1)" /><rect
         transform="scale(1,-1)"
         y="-164.40944"
         x="0"
         height="164.40945"
         width="63.779526"
         id="rect5446"
         style="opacity:0.21777781;fill:url(#pattern5448);fill-opacity:1;fill-rule:evenodd" /></g></g></svg>